<svg width="230" height="54" viewBox="0 0 230 54" fill="none" xmlns="http://www.w3.org/2000/svg">
<path d="M100.099 23.7618C101.868 23.7618 103.217 24.2926 104.146 25.3542C105.097 26.3937 105.572 28.0856 105.572 30.4299V38.5908C105.572 39.2321 105.373 39.7297 104.975 40.0836C104.599 40.4153 104.102 40.5812 103.482 40.5812C102.885 40.5812 102.388 40.4153 101.99 40.0836C101.614 39.7297 101.426 39.2321 101.426 38.5908V30.4299C101.426 29.2135 101.204 28.351 100.762 27.8423C100.342 27.3115 99.6895 27.0461 98.8048 27.0461C97.7211 27.0461 96.8586 27.4221 96.2172 28.174C95.5759 28.9039 95.2552 29.9101 95.2552 31.1929V38.5908C95.2552 39.2321 95.0561 39.7297 94.658 40.0836C94.2821 40.4153 93.7955 40.5812 93.1984 40.5812C92.6012 40.5812 92.1036 40.4153 91.7055 40.0836C91.3074 39.7297 91.1084 39.2321 91.1084 38.5908V30.4299C91.1084 29.2135 90.8872 28.351 90.4449 27.8423C90.0247 27.3115 89.3723 27.0461 88.4876 27.0461C87.4039 27.0461 86.5414 27.4221 85.9 28.174C85.2808 28.9039 84.9711 29.9101 84.9711 31.1929V38.5908C84.9711 39.2321 84.7721 39.7297 84.374 40.0836C83.9759 40.4153 83.4783 40.5812 82.8812 40.5812C82.284 40.5812 81.7864 40.4153 81.3883 40.0836C81.0123 39.7297 80.8244 39.2321 80.8244 38.5908V25.7523C80.8244 25.133 81.0234 24.6575 81.4215 24.3258C81.8196 23.9941 82.3172 23.8282 82.9143 23.8282C83.4894 23.8282 83.9538 23.9941 84.3077 24.3258C84.6836 24.6354 84.8716 25.0888 84.8716 25.686V26.4821C85.3803 25.5975 86.0548 24.9229 86.8953 24.4585C87.7578 23.9941 88.742 23.7618 89.8478 23.7618C92.2806 23.7618 93.9061 24.7792 94.7244 26.8139C95.211 25.885 95.9297 25.1441 96.8807 24.5912C97.8317 24.0383 98.9044 23.7618 100.099 23.7618ZM111.844 40.5812C111.247 40.5812 110.749 40.4153 110.351 40.0836C109.975 39.7297 109.787 39.2321 109.787 38.5908V25.7855C109.787 25.1441 109.975 24.6575 110.351 24.3258C110.749 23.9941 111.247 23.8282 111.844 23.8282C112.441 23.8282 112.939 23.9941 113.337 24.3258C113.735 24.6575 113.934 25.1441 113.934 25.7855V38.5908C113.934 39.2321 113.735 39.7297 113.337 40.0836C112.939 40.4153 112.441 40.5812 111.844 40.5812ZM111.844 20.8757C111.092 20.8757 110.495 20.6766 110.052 20.2785C109.61 19.8583 109.389 19.3165 109.389 18.653C109.389 17.9895 109.61 17.4587 110.052 17.0606C110.495 16.6625 111.092 16.4635 111.844 16.4635C112.574 16.4635 113.16 16.6625 113.602 17.0606C114.067 17.4587 114.299 17.9895 114.299 18.653C114.299 19.3165 114.078 19.8583 113.635 20.2785C113.193 20.6766 112.596 20.8757 111.844 20.8757ZM125.409 40.6476C123.795 40.6476 122.368 40.3048 121.13 39.6192C119.913 38.9336 118.973 37.9604 118.31 36.6998C117.646 35.4392 117.315 33.9685 117.315 32.2876C117.315 30.6068 117.657 29.125 118.343 27.8423C119.051 26.5374 120.035 25.5311 121.295 24.8234C122.556 24.1157 124.005 23.7618 125.641 23.7618C126.504 23.7618 127.366 23.8835 128.229 24.1268C129.114 24.37 129.888 24.7018 130.551 25.122C131.259 25.5864 131.613 26.1725 131.613 26.8802C131.613 27.3668 131.491 27.7649 131.248 28.0745C131.027 28.362 130.728 28.5058 130.352 28.5058C130.109 28.5058 129.854 28.4505 129.589 28.3399C129.324 28.2293 129.058 28.0966 128.793 27.9418C128.306 27.6543 127.842 27.4331 127.4 27.2783C126.957 27.1014 126.449 27.0129 125.874 27.0129C124.502 27.0129 123.441 27.4663 122.689 28.3731C121.959 29.2577 121.594 30.5405 121.594 32.2213C121.594 33.88 121.959 35.1627 122.689 36.0695C123.441 36.9542 124.502 37.3965 125.874 37.3965C126.426 37.3965 126.913 37.3191 127.333 37.1643C127.776 36.9873 128.262 36.7551 128.793 36.4676C129.125 36.2686 129.412 36.1248 129.655 36.0363C129.899 35.9258 130.142 35.8705 130.385 35.8705C130.739 35.8705 131.038 36.0253 131.281 36.3349C131.524 36.6445 131.646 37.0316 131.646 37.496C131.646 37.872 131.557 38.2037 131.38 38.4912C131.226 38.7566 130.96 38.9999 130.584 39.2211C129.899 39.6634 129.102 40.0173 128.196 40.2826C127.289 40.5259 126.36 40.6476 125.409 40.6476ZM143.465 23.8282C144.04 23.784 144.494 23.9056 144.825 24.1931C145.157 24.4806 145.323 24.9119 145.323 25.4869C145.323 26.084 145.179 26.5264 144.892 26.8139C144.604 27.1014 144.084 27.2894 143.333 27.3778L142.337 27.4774C141.032 27.6101 140.07 28.0524 139.451 28.8043C138.854 29.5563 138.555 30.4962 138.555 31.6242V38.5908C138.555 39.2321 138.356 39.7297 137.958 40.0836C137.56 40.4153 137.063 40.5812 136.465 40.5812C135.868 40.5812 135.371 40.4153 134.973 40.0836C134.597 39.7297 134.409 39.2321 134.409 38.5908V25.7523C134.409 25.133 134.597 24.6575 134.973 24.3258C135.371 23.9941 135.857 23.8282 136.432 23.8282C137.007 23.8282 137.472 23.9941 137.826 24.3258C138.179 24.6354 138.356 25.0888 138.356 25.686V27.0129C138.777 26.0398 139.396 25.2879 140.214 24.7571C141.055 24.2263 141.983 23.9277 143.001 23.8614L143.465 23.8282ZM154.182 40.6476C152.523 40.6476 151.064 40.3048 149.803 39.6192C148.565 38.9336 147.603 37.9494 146.917 36.6666C146.231 35.3839 145.889 33.8911 145.889 32.1881C145.889 30.4852 146.231 29.0034 146.917 27.7428C147.603 26.46 148.565 25.4758 149.803 24.7902C151.064 24.1046 152.523 23.7618 154.182 23.7618C155.841 23.7618 157.289 24.1046 158.528 24.7902C159.789 25.4758 160.751 26.46 161.414 27.7428C162.1 29.0034 162.442 30.4852 162.442 32.1881C162.442 33.8911 162.1 35.3839 161.414 36.6666C160.751 37.9494 159.789 38.9336 158.528 39.6192C157.289 40.3048 155.841 40.6476 154.182 40.6476ZM154.149 37.4297C155.498 37.4297 156.526 36.9873 157.234 36.1027C157.942 35.218 158.296 33.9132 158.296 32.1881C158.296 30.4852 157.942 29.1914 157.234 28.3067C156.526 27.4 155.509 26.9466 154.182 26.9466C152.855 26.9466 151.827 27.4 151.097 28.3067C150.389 29.1914 150.035 30.4852 150.035 32.1881C150.035 33.9132 150.389 35.218 151.097 36.1027C151.805 36.9873 152.822 37.4297 154.149 37.4297ZM179.401 16.8284C180.02 16.8284 180.529 17.0053 180.927 17.3592C181.325 17.7131 181.524 18.1775 181.524 18.7525V38.5908C181.524 39.1879 181.336 39.6634 180.96 40.0173C180.584 40.3711 180.087 40.548 179.467 40.548C178.848 40.548 178.351 40.3711 177.975 40.0173C177.599 39.6634 177.411 39.1879 177.411 38.5908V37.7614C176.924 38.6682 176.216 39.3759 175.287 39.8846C174.381 40.3932 173.341 40.6476 172.169 40.6476C170.776 40.6476 169.526 40.2937 168.42 39.586C167.337 38.8783 166.485 37.883 165.866 36.6003C165.269 35.2954 164.97 33.8026 164.97 32.1218C164.97 30.4409 165.269 28.9702 165.866 27.7096C166.485 26.449 167.337 25.4758 168.42 24.7902C169.504 24.1046 170.754 23.7618 172.169 23.7618C173.341 23.7618 174.381 24.0051 175.287 24.4917C176.194 24.9782 176.891 25.6638 177.377 26.5485V18.6862C177.377 18.1333 177.554 17.6909 177.908 17.3592C178.284 17.0053 178.782 16.8284 179.401 16.8284ZM173.264 37.4297C174.591 37.4297 175.608 36.9763 176.316 36.0695C177.046 35.1627 177.411 33.8689 177.411 32.1881C177.411 30.5073 177.046 29.2245 176.316 28.3399C175.608 27.4331 174.602 26.9798 173.297 26.9798C171.97 26.9798 170.942 27.4221 170.212 28.3067C169.482 29.1914 169.117 30.4631 169.117 32.1218C169.117 33.8026 169.482 35.1075 170.212 36.0363C170.942 36.9652 171.959 37.4297 173.264 37.4297ZM199.325 16.8284C199.944 16.8284 200.453 17.0053 200.851 17.3592C201.249 17.7131 201.448 18.1775 201.448 18.7525V38.5908C201.448 39.1879 201.26 39.6634 200.884 40.0173C200.508 40.3711 200.011 40.548 199.391 40.548C198.772 40.548 198.275 40.3711 197.899 40.0173C197.523 39.6634 197.335 39.1879 197.335 38.5908V37.7614C196.848 38.6682 196.14 39.3759 195.211 39.8846C194.305 40.3932 193.265 40.6476 192.093 40.6476C190.7 40.6476 189.45 40.2937 188.344 39.586C187.261 38.8783 186.409 37.883 185.79 36.6003C185.193 35.2954 184.894 33.8026 184.894 32.1218C184.894 30.4409 185.193 28.9702 185.79 27.7096C186.409 26.449 187.261 25.4758 188.344 24.7902C189.428 24.1046 190.678 23.7618 192.093 23.7618C193.265 23.7618 194.305 24.0051 195.211 24.4917C196.118 24.9782 196.815 25.6638 197.301 26.5485V18.6862C197.301 18.1333 197.478 17.6909 197.832 17.3592C198.208 17.0053 198.706 16.8284 199.325 16.8284ZM193.188 37.4297C194.515 37.4297 195.532 36.9763 196.24 36.0695C196.97 35.1627 197.335 33.8689 197.335 32.1881C197.335 30.5073 196.97 29.2245 196.24 28.3399C195.532 27.4331 194.526 26.9798 193.221 26.9798C191.894 26.9798 190.866 27.4221 190.136 28.3067C189.406 29.1914 189.041 30.4631 189.041 32.1218C189.041 33.8026 189.406 35.1075 190.136 36.0363C190.866 36.9652 191.883 37.4297 193.188 37.4297ZM207.771 40.5812C207.174 40.5812 206.676 40.4153 206.278 40.0836C205.902 39.7297 205.714 39.2321 205.714 38.5908V25.7855C205.714 25.1441 205.902 24.6575 206.278 24.3258C206.676 23.9941 207.174 23.8282 207.771 23.8282C208.368 23.8282 208.866 23.9941 209.264 24.3258C209.662 24.6575 209.861 25.1441 209.861 25.7855V38.5908C209.861 39.2321 209.662 39.7297 209.264 40.0836C208.866 40.4153 208.368 40.5812 207.771 40.5812ZM207.771 20.8757C207.019 20.8757 206.422 20.6766 205.979 20.2785C205.537 19.8583 205.316 19.3165 205.316 18.653C205.316 17.9895 205.537 17.4587 205.979 17.0606C206.422 16.6625 207.019 16.4635 207.771 16.4635C208.501 16.4635 209.087 16.6625 209.529 17.0606C209.993 17.4587 210.226 17.9895 210.226 18.653C210.226 19.3165 210.005 19.8583 209.562 20.2785C209.12 20.6766 208.523 20.8757 207.771 20.8757ZM223.276 37.496C224.382 37.5624 224.935 38.06 224.935 38.9889C224.935 39.5196 224.714 39.9288 224.271 40.2163C223.851 40.4817 223.243 40.5923 222.447 40.548L221.551 40.4817C217.836 40.2163 215.978 38.2258 215.978 34.5103V27.2783H214.319C213.722 27.2783 213.257 27.1456 212.926 26.8802C212.616 26.6148 212.461 26.2278 212.461 25.7191C212.461 25.2105 212.616 24.8234 212.926 24.558C213.257 24.2926 213.722 24.1599 214.319 24.1599H215.978V21.1079C215.978 20.5108 216.166 20.0353 216.542 19.6814C216.918 19.3275 217.426 19.1506 218.068 19.1506C218.687 19.1506 219.185 19.3275 219.561 19.6814C219.937 20.0353 220.125 20.5108 220.125 21.1079V24.1599H222.944C223.542 24.1599 223.995 24.2926 224.305 24.558C224.636 24.8234 224.802 25.2105 224.802 25.7191C224.802 26.2278 224.636 26.6148 224.305 26.8802C223.995 27.1456 223.542 27.2783 222.944 27.2783H220.125V34.8089C220.125 36.4455 220.877 37.3191 222.38 37.4297L223.276 37.496Z" fill="white"/>
<path d="M45.1964 28.6376L52.734 41.6933H69.2679L45.1964 -3.25888e-05L21.1248 41.6933H37.6587L45.1964 28.6376" fill="#F14259"/>
<path d="M24.0716 -3.25888e-05L0 41.6933H17.6436L32.8935 15.2793L24.0716 -3.25888e-05Z" fill="#1F70AB"/>
</svg>
