<svg width="341" height="62" viewBox="0 0 341 62" fill="none" xmlns="http://www.w3.org/2000/svg">
<path d="M148.554 36.2978C151.183 36.2978 153.188 37.0867 154.569 38.6645C155.982 40.2094 156.689 42.724 156.689 46.2083V58.3375C156.689 59.2907 156.393 60.0303 155.802 60.5562C155.243 61.0493 154.503 61.2958 153.583 61.2958C152.695 61.2958 151.956 61.0493 151.364 60.5562C150.805 60.0303 150.526 59.2907 150.526 58.3375V46.2083C150.526 44.4004 150.197 43.1184 149.54 42.3624C148.915 41.5735 147.946 41.1791 146.631 41.1791C145.02 41.1791 143.738 41.7379 142.785 42.8555C141.832 43.9402 141.355 45.4358 141.355 47.3423V58.3375C141.355 59.2907 141.059 60.0303 140.467 60.5562C139.909 61.0493 139.186 61.2958 138.298 61.2958C137.411 61.2958 136.671 61.0493 136.079 60.5562C135.488 60.0303 135.192 59.2907 135.192 58.3375V46.2083C135.192 44.4004 134.863 43.1184 134.206 42.3624C133.581 41.5735 132.611 41.1791 131.297 41.1791C129.686 41.1791 128.404 41.7379 127.451 42.8555C126.53 43.9402 126.07 45.4358 126.07 47.3423V58.3375C126.07 59.2907 125.774 60.0303 125.183 60.5562C124.591 61.0493 123.851 61.2958 122.964 61.2958C122.076 61.2958 121.337 61.0493 120.745 60.5562C120.186 60.0303 119.907 59.2907 119.907 58.3375V39.2561C119.907 38.3358 120.203 37.6291 120.794 37.136C121.386 36.6429 122.126 36.3964 123.013 36.3964C123.868 36.3964 124.558 36.6429 125.084 37.136C125.643 37.5962 125.922 38.27 125.922 39.1575V40.3409C126.678 39.026 127.681 38.0235 128.93 37.3332C130.212 36.6429 131.675 36.2978 133.318 36.2978C136.934 36.2978 139.35 37.8098 140.566 40.8339C141.289 39.4534 142.358 38.3522 143.771 37.5304C145.184 36.7087 146.779 36.2978 148.554 36.2978ZM166.01 61.2958C165.123 61.2958 164.383 61.0493 163.791 60.5562C163.233 60.0303 162.953 59.2907 162.953 58.3375V39.3054C162.953 38.3522 163.233 37.6291 163.791 37.136C164.383 36.6429 165.123 36.3964 166.01 36.3964C166.898 36.3964 167.637 36.6429 168.229 37.136C168.821 37.6291 169.116 38.3522 169.116 39.3054V58.3375C169.116 59.2907 168.821 60.0303 168.229 60.5562C167.637 61.0493 166.898 61.2958 166.01 61.2958ZM166.01 32.0082C164.893 32.0082 164.005 31.7124 163.348 31.1207C162.69 30.4961 162.362 29.6908 162.362 28.7047C162.362 27.7186 162.69 26.9297 163.348 26.338C164.005 25.7464 164.893 25.4505 166.01 25.4505C167.095 25.4505 167.966 25.7464 168.623 26.338C169.314 26.9297 169.659 27.7186 169.659 28.7047C169.659 29.6908 169.33 30.4961 168.673 31.1207C168.015 31.7124 167.128 32.0082 166.01 32.0082ZM186.172 61.3944C183.772 61.3944 181.652 60.885 179.811 59.866C178.003 58.847 176.606 57.4007 175.62 55.5271C174.634 53.6534 174.141 51.4675 174.141 48.9694C174.141 46.4712 174.651 44.2689 175.67 42.3624C176.721 40.423 178.184 38.9274 180.058 37.8756C181.931 36.8237 184.084 36.2978 186.517 36.2978C187.799 36.2978 189.081 36.4786 190.363 36.8402C191.677 37.2017 192.828 37.6948 193.814 38.3193C194.866 39.0096 195.392 39.8807 195.392 40.9325C195.392 41.6557 195.211 42.2474 194.849 42.7075C194.521 43.1349 194.077 43.3485 193.518 43.3485C193.157 43.3485 192.779 43.2663 192.384 43.102C191.99 42.9376 191.595 42.7404 191.201 42.5103C190.478 42.083 189.787 41.7543 189.13 41.5242C188.473 41.2612 187.717 41.1298 186.862 41.1298C184.824 41.1298 183.246 41.8036 182.129 43.1513C181.044 44.4661 180.501 46.3726 180.501 48.8708C180.501 51.3361 181.044 53.2426 182.129 54.5902C183.246 55.9051 184.824 56.5625 186.862 56.5625C187.684 56.5625 188.407 56.4474 189.031 56.2173C189.689 55.9544 190.412 55.6092 191.201 55.1819C191.694 54.8861 192.121 54.6724 192.483 54.5409C192.844 54.3766 193.206 54.2944 193.568 54.2944C194.093 54.2944 194.537 54.5245 194.899 54.9847C195.26 55.4449 195.441 56.0201 195.441 56.7104C195.441 57.2692 195.31 57.7623 195.047 58.1896C194.817 58.584 194.422 58.9456 193.863 59.2743C192.844 59.9317 191.661 60.4576 190.313 60.8521C188.966 61.2137 187.585 61.3944 186.172 61.3944ZM213.008 36.3964C213.863 36.3307 214.536 36.5115 215.029 36.9388C215.522 37.3661 215.769 38.0071 215.769 38.8617C215.769 39.7492 215.555 40.4066 215.128 40.8339C214.701 41.2612 213.928 41.5406 212.811 41.6721L211.331 41.82C209.392 42.0173 207.962 42.6747 207.042 43.7923C206.154 44.9099 205.711 46.3069 205.711 47.9833V58.3375C205.711 59.2907 205.415 60.0303 204.823 60.5562C204.231 61.0493 203.492 61.2958 202.604 61.2958C201.717 61.2958 200.977 61.0493 200.386 60.5562C199.827 60.0303 199.547 59.2907 199.547 58.3375V39.2561C199.547 38.3358 199.827 37.6291 200.386 37.136C200.977 36.6429 201.7 36.3964 202.555 36.3964C203.41 36.3964 204.1 36.6429 204.626 37.136C205.152 37.5962 205.415 38.27 205.415 39.1575V41.1298C206.039 39.6835 206.96 38.5659 208.176 37.777C209.425 36.9881 210.806 36.5443 212.318 36.4457L213.008 36.3964ZM228.936 61.3944C226.471 61.3944 224.301 60.885 222.428 59.866C220.587 58.847 219.157 57.3842 218.138 55.4778C217.119 53.5713 216.609 51.3525 216.609 48.8215C216.609 46.2904 217.119 44.0881 218.138 42.2145C219.157 40.308 220.587 38.8453 222.428 37.8263C224.301 36.8073 226.471 36.2978 228.936 36.2978C231.401 36.2978 233.554 36.8073 235.395 37.8263C237.269 38.8453 238.698 40.308 239.685 42.2145C240.704 44.0881 241.213 46.2904 241.213 48.8215C241.213 51.3525 240.704 53.5713 239.685 55.4778C238.698 57.3842 237.269 58.847 235.395 59.866C233.554 60.885 231.401 61.3944 228.936 61.3944ZM228.887 56.6118C230.892 56.6118 232.42 55.9544 233.472 54.6396C234.524 53.3247 235.05 51.3854 235.05 48.8215C235.05 46.2904 234.524 44.3675 233.472 43.0527C232.42 41.705 230.908 41.0312 228.936 41.0312C226.964 41.0312 225.435 41.705 224.351 43.0527C223.299 44.3675 222.773 46.2904 222.773 48.8215C222.773 51.3854 223.299 53.3247 224.351 54.6396C225.402 55.9544 226.914 56.6118 228.887 56.6118ZM266.418 25.9929C267.338 25.9929 268.094 26.2558 268.686 26.7818C269.278 27.3077 269.574 27.998 269.574 28.8526V58.3375C269.574 59.225 269.294 59.9317 268.735 60.4576C268.177 60.9836 267.437 61.2465 266.517 61.2465C265.596 61.2465 264.857 60.9836 264.298 60.4576C263.739 59.9317 263.46 59.225 263.46 58.3375V57.1048C262.736 58.4525 261.685 59.5044 260.304 60.2604C258.956 61.0164 257.411 61.3944 255.669 61.3944C253.598 61.3944 251.741 60.8685 250.098 59.8167C248.487 58.7648 247.222 57.2856 246.301 55.3791C245.414 53.4398 244.97 51.221 244.97 48.7229C244.97 46.2247 245.414 44.0388 246.301 42.1652C247.222 40.2916 248.487 38.8453 250.098 37.8263C251.708 36.8073 253.566 36.2978 255.669 36.2978C257.411 36.2978 258.956 36.6594 260.304 37.3825C261.652 38.1057 262.687 39.1247 263.41 40.4395V28.754C263.41 27.9322 263.673 27.2748 264.199 26.7818C264.758 26.2558 265.498 25.9929 266.418 25.9929ZM257.296 56.6118C259.269 56.6118 260.781 55.9379 261.833 54.5902C262.917 53.2426 263.46 51.3196 263.46 48.8215C263.46 46.3233 262.917 44.4168 261.833 43.102C260.781 41.7543 259.285 41.0805 257.346 41.0805C255.373 41.0805 253.845 41.7379 252.76 43.0527C251.676 44.3675 251.133 46.2576 251.133 48.7229C251.133 51.221 251.676 53.1604 252.76 54.5409C253.845 55.9215 255.357 56.6118 257.296 56.6118ZM296.03 25.9929C296.951 25.9929 297.707 26.2558 298.298 26.7818C298.89 27.3077 299.186 27.998 299.186 28.8526V58.3375C299.186 59.225 298.907 59.9317 298.348 60.4576C297.789 60.9836 297.049 61.2465 296.129 61.2465C295.209 61.2465 294.469 60.9836 293.91 60.4576C293.351 59.9317 293.072 59.225 293.072 58.3375V57.1048C292.349 58.4525 291.297 59.5044 289.916 60.2604C288.569 61.0164 287.024 61.3944 285.282 61.3944C283.211 61.3944 281.354 60.8685 279.71 59.8167C278.099 58.7648 276.834 57.2856 275.914 55.3791C275.026 53.4398 274.582 51.221 274.582 48.7229C274.582 46.2247 275.026 44.0388 275.914 42.1652C276.834 40.2916 278.099 38.8453 279.71 37.8263C281.321 36.8073 283.178 36.2978 285.282 36.2978C287.024 36.2978 288.569 36.6594 289.916 37.3825C291.264 38.1057 292.3 39.1247 293.023 40.4395V28.754C293.023 27.9322 293.286 27.2748 293.812 26.7818C294.37 26.2558 295.11 25.9929 296.03 25.9929ZM286.909 56.6118C288.881 56.6118 290.393 55.9379 291.445 54.5902C292.53 53.2426 293.072 51.3196 293.072 48.8215C293.072 46.3233 292.53 44.4168 291.445 43.102C290.393 41.7543 288.897 41.0805 286.958 41.0805C284.986 41.0805 283.457 41.7379 282.373 43.0527C281.288 44.3675 280.746 46.2576 280.746 48.7229C280.746 51.221 281.288 53.1604 282.373 54.5409C283.457 55.9215 284.969 56.6118 286.909 56.6118ZM308.583 61.2958C307.695 61.2958 306.956 61.0493 306.364 60.5562C305.805 60.0303 305.526 59.2907 305.526 58.3375V39.3054C305.526 38.3522 305.805 37.6291 306.364 37.136C306.956 36.6429 307.695 36.3964 308.583 36.3964C309.47 36.3964 310.21 36.6429 310.802 37.136C311.393 37.6291 311.689 38.3522 311.689 39.3054V58.3375C311.689 59.2907 311.393 60.0303 310.802 60.5562C310.21 61.0493 309.47 61.2958 308.583 61.2958ZM308.583 32.0082C307.465 32.0082 306.578 31.7124 305.92 31.1207C305.263 30.4961 304.934 29.6908 304.934 28.7047C304.934 27.7186 305.263 26.9297 305.92 26.338C306.578 25.7464 307.465 25.4505 308.583 25.4505C309.668 25.4505 310.539 25.7464 311.196 26.338C311.886 26.9297 312.232 27.7186 312.232 28.7047C312.232 29.6908 311.903 30.4961 311.245 31.1207C310.588 31.7124 309.701 32.0082 308.583 32.0082ZM331.628 56.7104C333.272 56.809 334.093 57.5486 334.093 58.9292C334.093 59.718 333.765 60.3262 333.107 60.7535C332.483 61.1479 331.579 61.3123 330.395 61.2465L329.064 61.1479C323.542 60.7535 320.781 57.7951 320.781 52.2729V41.5242H318.315C317.428 41.5242 316.738 41.327 316.245 40.9325C315.784 40.5381 315.554 39.9629 315.554 39.2068C315.554 38.4508 315.784 37.8756 316.245 37.4811C316.738 37.0867 317.428 36.8895 318.315 36.8895H320.781V32.3533C320.781 31.4658 321.06 30.7591 321.619 30.2332C322.178 29.7073 322.934 29.4443 323.887 29.4443C324.807 29.4443 325.547 29.7073 326.106 30.2332C326.665 30.7591 326.944 31.4658 326.944 32.3533V36.8895H331.135C332.022 36.8895 332.696 37.0867 333.156 37.4811C333.65 37.8756 333.896 38.4508 333.896 39.2068C333.896 39.9629 333.65 40.5381 333.156 40.9325C332.696 41.327 332.022 41.5242 331.135 41.5242H326.944V52.7166C326.944 55.149 328.062 56.4474 330.297 56.6118L331.628 56.7104Z" fill="white"/>
<path d="M67.1738 42.5631L78.3767 61.9673H102.95L67.1738 -3.0543e-05L31.397 61.9673H55.9708L67.1738 42.5631" fill="#F14259"/>
<path d="M35.7768 -3.0543e-05L3.05176e-05 61.9673H26.2231L48.8884 22.7091L35.7768 -3.0543e-05Z" fill="#1F70AB"/>
</svg>
